<?xml version="1.0" encoding="UTF-8" standalone="no"?>
<svg
   style="height: 512px; width: 512px;"
   viewBox="0 0 512 512"
   version="1.1"
   id="svg8"
   sodipodi:docname="clapperboard03.svg"
   inkscape:version="1.1.2 (0a00cf5339, 2022-02-04)"
   inkscape:export-filename="/home/katie/Downloads/clapperboardsss.png"
   inkscape:export-xdpi="96"
   inkscape:export-ydpi="96"
   xmlns:inkscape="http://www.inkscape.org/namespaces/inkscape"
   xmlns:sodipodi="http://sodipodi.sourceforge.net/DTD/sodipodi-0.dtd"
   xmlns="http://www.w3.org/2000/svg"
   xmlns:svg="http://www.w3.org/2000/svg">
  <defs
     id="defs12" />
  <sodipodi:namedview
     id="namedview10"
     pagecolor="#ffffff"
     bordercolor="#666666"
     borderopacity="1.0"
     inkscape:pageshadow="2"
     inkscape:pageopacity="0.0"
     inkscape:pagecheckerboard="0"
     showgrid="false"
     inkscape:zoom="1.5820312"
     inkscape:cx="252.20742"
     inkscape:cy="256.00001"
     inkscape:window-width="1920"
     inkscape:window-height="988"
     inkscape:window-x="0"
     inkscape:window-y="0"
     inkscape:window-maximized="1"
     inkscape:current-layer="svg8" />
  <g
     class=""
     id="g6"
     style="fill:#a02c2c">
    <path
       d="m 419.682,26.2 -8.66,2.452 L 32.915,135.81 55.27,214.7 442.04,105.092 419.683,26.2 Z m -12.41,22.224 9.074,32.014 -41.086,-22.942 32.013,-9.072 z m -56.502,16.014 56.8,31.714 -37.084,10.51 -56.8,-31.715 37.084,-10.51 z m -61.577,17.45 56.803,31.716 -37.084,10.51 -56.8,-31.718 37.08,-10.51 z m -61.574,17.45 56.802,31.715 -37.084,10.51 -56.803,-31.715 37.084,-10.51 z m -61.577,17.45 56.803,31.716 -37.084,10.51 -56.8,-31.717 37.08,-10.51 z m -61.574,17.45 56.8,31.715 -37.083,10.51 -56.802,-31.715 37.084,-10.51 z m -45.86,26.227 41.085,22.94 -32.01,9.072 -9.074,-32.012 z M 55,215 V 489 H 457 V 215 Z m 18,18 h 33.273 L 73,266.273 Z m 58.727,0 h 38.546 l -46,46 H 85.727 Z m 64,0 h 38.546 l -46,46 h -38.546 z m 64,0 h 38.546 l -46,46 h -38.546 z m 64,0 h 38.546 l -46,46 h -38.546 z m 64,0 h 38.546 l -46,46 H 341.727 Z M 439,245.727 V 279 H 405.727 Z M 73,297 H 439 V 471 H 73 Z m 248.635,46.57 -192.44,0.703 0.067,18 192.44,-0.703 z m -190.935,47.76 -0.134,17.998 92.707,0.703 0.137,-18 -92.71,-0.7 z m 127.155,0.7 -0.2,18 63.913,0.702 0.2,-17.998 -63.913,-0.703 z"
       fill="#ffffff"
       fill-opacity="1"
       id="path4"
       style="fill:#a02c2c" />
  </g>
</svg>
